<?xml version="1.0" encoding="utf-8"?>
<!-- Generator: Adobe Illustrator 21.0.0, SVG Export Plug-In . SVG Version: 6.00 Build 0)  -->
<svg version="1.1" id="in" xmlns="http://www.w3.org/2000/svg" xmlns:xlink="http://www.w3.org/1999/xlink" x="0px" y="0px"
	 viewBox="0 0 512 512" style="enable-background:new 0 0 512 512;" xml:space="preserve">
<style type="text/css">
	.st0{fill:#CCCCCC;}
</style>
<g>
	<path id="LinkedIn_3_" class="st0" d="M512,311.4v189.2H402.2V324c0-44.4-15.8-74.6-55.6-74.6c-30.4,0-48.3,20.4-56.3,40.1
		c-2.9,7.1-3.8,17-3.8,26.8v184.3H176.9c0,0,1.5-299.1,0-330.1h109.7v46.8c-0.1,0.4-0.5,0.7-0.6,1.1h0.6v-1.1
		c14.7-22.5,40.6-54.5,98.9-54.5C457.9,162.8,512,210,512,311.4z M62.1,11.4C24.6,11.4,0,36,0,68.5c0,31.6,23.9,57,60.7,57h0.7
		c38.4,0,62.1-25.5,62.1-57C122.7,36,99.7,11.4,62.1,11.4z M6.5,500.6h109.7V170.5H6.5V500.6z"/>
</g>
</svg>
